<?xml version="1.0" encoding="UTF-8" standalone="no"?>
<!-- Created with Inkscape (http://www.inkscape.org/) -->

<svg
   version="1.1"
   id="svg1"
   width="2280.6755"
   height="620.43359"
   viewBox="0 0 2280.6755 620.43359"
   sodipodi:docname="pixaproof_raw.svg"
   inkscape:version="1.4.3 (0d15f75042, 2025-12-25)"
   xmlns:inkscape="http://www.inkscape.org/namespaces/inkscape"
   xmlns:sodipodi="http://sodipodi.sourceforge.net/DTD/sodipodi-0.dtd"
   xmlns:xlink="http://www.w3.org/1999/xlink"
   xmlns="http://www.w3.org/2000/svg"
   xmlns:svg="http://www.w3.org/2000/svg">
  <defs
     id="defs1">
    <linearGradient
       id="linearGradient15"
       inkscape:collect="always">
      <stop
         style="stop-color:#8e2f13;stop-opacity:1;"
         offset="0"
         id="stop16" />
      <stop
         style="stop-color:#872f12;stop-opacity:1;"
         offset="1"
         id="stop17" />
    </linearGradient>
    <linearGradient
       id="linearGradient10"
       inkscape:collect="always">
      <stop
         style="stop-color:#923816;stop-opacity:1;"
         offset="0.29682872"
         id="stop10" />
      <stop
         style="stop-color:#75290f;stop-opacity:1;"
         offset="1"
         id="stop11" />
    </linearGradient>
    <linearGradient
       id="linearGradient8"
       inkscape:collect="always">
      <stop
         style="stop-color:#eb883b;stop-opacity:1;"
         offset="0"
         id="stop8" />
      <stop
         style="stop-color:#cb5116;stop-opacity:1;"
         offset="1"
         id="stop9" />
    </linearGradient>
    <linearGradient
       inkscape:collect="always"
       xlink:href="#linearGradient8"
       id="linearGradient9"
       x1="2102.4099"
       y1="486.11053"
       x2="2864.2683"
       y2="1111.8849"
       gradientUnits="userSpaceOnUse" />
    <linearGradient
       inkscape:collect="always"
       xlink:href="#linearGradient15"
       id="linearGradient17"
       x1="2583.823"
       y1="457.32047"
       x2="3023.8801"
       y2="457.32047"
       gradientUnits="userSpaceOnUse" />
    <linearGradient
       inkscape:collect="always"
       xlink:href="#linearGradient10"
       id="linearGradient1"
       x1="2401.4324"
       y1="808.7099"
       x2="2706.1021"
       y2="808.7099"
       gradientUnits="userSpaceOnUse" />
  </defs>
  <sodipodi:namedview
     id="namedview1"
     pagecolor="#ffffff"
     bordercolor="#000000"
     borderopacity="0.25"
     inkscape:showpageshadow="2"
     inkscape:pageopacity="0.0"
     inkscape:pagecheckerboard="0"
     inkscape:deskcolor="#d1d1d1"
     inkscape:zoom="0.27296244"
     inkscape:cx="1066.0807"
     inkscape:cy="573.33896"
     inkscape:window-width="1508"
     inkscape:window-height="891"
     inkscape:window-x="0"
     inkscape:window-y="0"
     inkscape:window-maximized="0"
     inkscape:current-layer="g1"
     showgrid="false"
     inkscape:export-bgcolor="#ffffff00">
    <inkscape:grid
       id="grid1"
       units="px"
       originx="-337.92746"
       originy="-145.11351"
       spacingx="1"
       spacingy="1"
       empcolor="#0099e5"
       empopacity="0.30196078"
       color="#0099e5"
       opacity="0.14901961"
       empspacing="5"
       enabled="true"
       visible="false" />
    <inkscape:page
       x="0"
       y="0"
       width="2280.6755"
       height="620.43359"
       id="page2"
       margin="0"
       bleed="0" />
  </sodipodi:namedview>
  <text
     xml:space="preserve"
     style="font-size:351.806px;writing-mode:lr-tb;direction:ltr;fill:#582c0b;fill-opacity:1;stroke-width:3.66462"
     x="720.05164"
     y="522.99518"
     id="text1-6"
     inkscape:export-filename="text1-6.png"
     inkscape:export-xdpi="96"
     inkscape:export-ydpi="96"><tspan
       sodipodi:role="line"
       id="tspan1-3"
       style="font-style:normal;font-variant:normal;font-weight:bold;font-stretch:normal;font-size:351.806px;font-family:'Inter Display';-inkscape-font-specification:'Inter Display Bold';fill:#582c0b;fill-opacity:1;stroke-width:3.66462"
       x="720.05164"
       y="522.99518">Pixaproof</tspan></text>
  <g
     inkscape:groupmode="layer"
     inkscape:label="Image"
     id="g1"
     transform="matrix(0.70650468,0,0,0.70650468,-1397.2663,-190.69433)">
    <path
       style="fill:url(#linearGradient1);stroke:none"
       d="m 2539.8269,648.19162 c -26.0311,3.428 -49.2382,11.3847 -71,26.4606 -92.6256,64.1682 -88.0146,207.1593 3,269.774 14.1276,9.7191 29.3069,17.0219 46,21.2145 16.8839,4.2405 34.6656,5.9142 52,3.841 21.6846,-2.5936 43.7335,-10.1094 62,-22.2214 48.5826,-32.214 77.9203,-89.9488 73.9105,-148.4931 -5.6969,-83.1764 -77.6933,-162.1928 -165.9105,-150.5756 z"
       id="path5"
       inkscape:export-filename="path5.png"
       inkscape:export-xdpi="96"
       inkscape:export-ydpi="96" />
    <path
       style="fill:url(#linearGradient9);fill-opacity:1;stroke:none"
       d="m 2897.8269,563.76724 c -13.6503,6.41895 -25.1229,25.87653 -35.1698,37 -26.4211,29.25218 -54.4041,57.24058 -80.2546,86.99998 -8.0465,9.2633 -16.9851,17.7234 -24.9992,27 -3.2793,3.7959 -8.2289,7.8525 -9.2585,13 -1.3804,6.901 3.9113,16.2764 5.5525,23 3.7,15.1593 6.7323,31.3756 7.115,47 1.8785,76.6893 -31.1189,153.3885 -96.9854,196.3048 -25.0685,16.33378 -52.2942,27.69588 -82,31.82558 -126.8876,17.6396 -233.9994,-90.22278 -236.9854,-214.13038 -1.6448,-68.2549 32.1275,-135.0412 83.9854,-178.0795 22.6638,-18.8092 51.9215,-34.41163 81,-40.11646 36.5453,-7.16974 71.2334,-4.29059 107,5.19598 -11.16,-16.32037 -26.4659,-30.5658 -39.9105,-45 -14.4762,-15.54181 -28.2176,-31.77136 -43.0493,-46.98535 -9.669,-9.91809 -19.6209,-27.62354 -32.0402,-33.83557 -8.5094,-4.25635 -24.5885,-1.17908 -34,-1.17908 h -81 -215 c -50.2773,0 -99.7622,-1.36035 -139.9992,34.15509 -53.9663,47.63373 -53.8495,112.21759 -53.8495,178.42049 l -0.1513,248.4244 c 0,49.9316 -3.3348,103.96628 26.7215,146.99998 24.0901,34.4915 59.4004,58.7189 101.2785,65.7145 29.8136,4.9803 62.7933,1.2855 93,1.2855 h 226 269 c 47.91,0 99.3607,6.6547 143,-17.3118 40.5879,-22.2905 65.4001,-62.446 75.115,-106.6882 4.3667,-19.886 2.885,-40.78158 2.885,-60.99998 v -96 -165 c 0,-48.1378 1.7922,-91.8011 -17,-136.99998"
       id="path4" />
    <path
       style="fill:#ffffff;fill-opacity:1;stroke:none"
       d="m 2200.8269,607.22242 c 63.9033,-1.5578 64.3781,102.2449 0,103.4908 -65.2714,1.2632 -64.4886,-101.9186 0,-103.4908"
       id="path3" />
    <path
       style="fill:#943713;fill-opacity:1;stroke:none"
       d="m 2129.8269,449.76724 h 142 c 0,-14.47742 3.8101,-33.62024 -7.0941,-44.95984 -9.07,-9.43201 -19.8827,-8.04016 -31.9059,-8.04016 h -65 c -10.9586,0 -21.322,-0.99829 -29.9066,7.18518 -11.871,11.31641 -8.0934,30.96924 -8.0934,45.81482"
       id="path2" />
    <path
       style="fill:url(#linearGradient17);stroke:none"
       d="m 2962.8269,270.28653 c -8.9039,1.89904 -14.7825,9.95031 -20.4236,16.48071 -9.7085,11.23901 -19.8694,22.09399 -29.8511,33.08948 -42.0089,46.27551 -82.5457,93.83679 -124.7793,139.94983 -10.8153,11.80871 -21.4792,23.83288 -31.946,35.96069 -3.2274,3.73962 -8.2155,12.12103 -13.1659,13.50311 -3.4069,0.95111 -6.0992,-3.3562 -7.9645,-5.5039 -5.3106,-6.11493 -10.7779,-12.06891 -16.1944,-18.08869 -20.0175,-22.24695 -39.0784,-49.06738 -61.7145,-68.58178 -9.978,-8.60193 -21.8872,-7.67078 -30.8712,1.68664 -9.8596,10.26941 -18.7382,21.40662 -28.2584,31.98462 -7.0589,7.84302 -14.8498,14.55542 -13.7261,26 1.4575,14.84497 22.0196,29.39624 31.3811,39.71448 29.1887,32.17206 59.6029,63.49383 88.0895,96.2855 10.2273,11.7728 25.5531,34.805 43.4244,31.6713 10.4935,-1.84 17.222,-12.4 24.0007,-19.6859 16.751,-18.0042 33.3471,-36.3768 49.4229,-54.98538 45.1618,-52.27716 91.672,-103.5321 137.7462,-155 13.7079,-15.31262 27.2635,-30.73669 41.0007,-46 7.6287,-8.4762 17.2846,-16.63379 22.4514,-27 11.3161,-22.70313 -19.8089,-42.65735 -32.9653,-56.73071 -6.8503,-7.32776 -14.3032,-17.17139 -25.6566,-14.75"
       id="path1" />
  </g>
</svg>
